<?xml version="1.0" standalone="no"?><!DOCTYPE svg PUBLIC "-//W3C//DTD SVG 1.1//EN" "http://www.w3.org/Graphics/SVG/1.1/DTD/svg11.dtd"><svg t="1590678223897" class="icon" viewBox="0 0 1024 1024" version="1.1" xmlns="http://www.w3.org/2000/svg" p-id="3460" xmlns:xlink="http://www.w3.org/1999/xlink" width="200" height="200"><defs><style type="text/css"></style></defs><path d="M515.233684 432.855579a23.390316 23.390316 0 0 1-15.548631-3.880421l-365.67579-143.925895a37.376 37.376 0 0 1-23.336421-35.031579 39.397053 39.397053 0 0 1 23.336421-35.031579l365.648842-143.925894a33.226105 33.226105 0 0 1 27.216842 0l365.648842 143.925894a37.376 37.376 0 0 1 23.336422 35.031579 39.397053 39.397053 0 0 1-23.336422 35.031579l-365.648842 143.925895a14.282105 14.282105 0 0 1-11.641263 3.880421zM254.598737 250.017684l260.634947 101.133474 260.634948-101.133474-260.634948-101.133473z" fill="#83D2EA" p-id="3461"></path><path d="M515.341474 619.573895l-377.263158-151.713684a39.397053 39.397053 0 1 1 27.216842-73.916632l350.10021 140.126316 350.100211-140.126316a39.397053 39.397053 0 1 1 27.216842 73.916632z" fill="#208BB5" p-id="3462"></path><path d="M515.206737 810.172632l-381.197474-151.713685a39.397053 39.397053 0 1 1 27.216842-73.916631l350.100211 140.126316 350.10021-140.126316a39.397053 39.397053 0 1 1 27.216842 73.916631z" fill="#208BB5" p-id="3463"></path><path d="M515.341474 996.890947l-377.263158-151.713684a39.397053 39.397053 0 0 1 27.216842-73.916631l350.10021 140.126315 350.100211-140.126315a39.397053 39.397053 0 0 1 27.216842 73.916631z" fill="#208BB5" p-id="3464"></path></svg>