<?xml version="1.0" standalone="no"?><!DOCTYPE svg PUBLIC "-//W3C//DTD SVG 1.1//EN" "http://www.w3.org/Graphics/SVG/1.1/DTD/svg11.dtd"><svg t="1590321877817" class="icon" viewBox="0 0 1024 1024" version="1.1" xmlns="http://www.w3.org/2000/svg" p-id="10865" xmlns:xlink="http://www.w3.org/1999/xlink" width="200" height="200"><defs><style type="text/css"></style></defs><path d="M471.85 536.889a47.634 47.634 0 0 1-6.196-23.609V273.382c0-26.595 21.312-48.155 48.02-48.155 26.518 0 48.015 21.533 48.015 48.155v219.961L666.69 598.341c18.675 18.68 18.744 48.891-0.137 67.772-18.753 18.752-49.238 18.67-67.771 0.137L481.342 548.81a48.509 48.509 0 0 1-9.492-11.921z m41.823 360.592c212.156 0 384.145-171.989 384.145-384.145 0-212.16-171.989-384.148-384.145-384.148-212.16 0-384.148 171.988-384.148 384.148 0 212.156 171.988 384.145 384.148 384.145z m0 0" fill="#d81e06" p-id="10866"></path></svg>