<?xml version="1.0" standalone="no"?><!DOCTYPE svg PUBLIC "-//W3C//DTD SVG 1.1//EN" "http://www.w3.org/Graphics/SVG/1.1/DTD/svg11.dtd"><svg t="1590258408005" class="icon" viewBox="0 0 1024 1024" version="1.1" xmlns="http://www.w3.org/2000/svg" p-id="2793" xmlns:xlink="http://www.w3.org/1999/xlink" width="200" height="200"><defs><style type="text/css"></style></defs><path d="M850.7392 541.4912H741.376a18.5344 18.5344 0 0 1-18.5344-18.5344V419.84a55.7056 55.7056 0 0 0-20.48-43.3152l-74.9568-60.416A176.0256 176.0256 0 0 1 357.376 512v11.3664a18.5344 18.5344 0 0 1-18.5344 18.5344H229.4784a55.7056 55.7056 0 0 0-55.3984 55.296v223.8464a55.7056 55.7056 0 0 0 55.7056 55.7056h200.9088A37.0688 37.0688 0 0 0 467.8656 839.68v-58.6752a70.144 70.144 0 0 1 70.144-70.144 74.24 74.24 0 0 1 74.24 74.24V839.68a37.0688 37.0688 0 0 0 37.0688 37.0688h201.4208a55.7056 55.7056 0 0 0 55.7056-55.7056V597.1968a55.7056 55.7056 0 0 0-55.7056-55.7056zM545.5872 204.0832a9.216 9.216 0 0 1-5.5296-8.3968v-53.5552a9.216 9.216 0 0 1 3.4816-7.168 5.4272 5.4272 0 0 0-3.4816-1.3312 5.5296 5.5296 0 0 0-5.5296 5.4272v69.7344c3.6864 1.7408 7.3728 3.6864 10.9568 5.7344z" fill="#1082FF" p-id="2794"></path><path d="M545.5872 139.0592v65.024c14.2336 5.7344 51.2 18.944 65.3312 7.3728 12.0832-9.6256 39.424-6.4512 56.5248-3.2768a9.216 9.216 0 0 0 10.24-10.24 280.3712 280.3712 0 0 1 3.072-61.44 9.216 9.216 0 0 0-5.2224-9.728c-20.48-9.5232-61.952-4.9152-77.312 3.8912-11.5712 6.656-34.6112 4.3008-48.128 2.048a9.1136 9.1136 0 0 0-7.2704 1.9456 5.4272 5.4272 0 0 1 2.7648 4.4032z" fill="#1082FF" p-id="2795"></path><path d="M540.0576 142.1312v53.5552a9.216 9.216 0 0 0 5.5296 8.3968v-65.024a5.4272 5.4272 0 0 0-2.048-4.1984 9.216 9.216 0 0 0-3.4816 7.2704z" fill="#1082FF" p-id="2796"></path><path d="M540.0576 142.1312v53.5552a9.216 9.216 0 0 0 5.5296 8.3968v-65.024a5.4272 5.4272 0 0 0-2.048-4.1984 9.216 9.216 0 0 0-3.4816 7.2704z" fill="#1082FF" p-id="2797"></path><path d="M540.0576 430.4896m-50.9952 0a50.9952 50.9952 0 1 0 101.9904 0 50.9952 50.9952 0 1 0-101.9904 0Z" fill="#FFFFFF" p-id="2798"></path><path d="M627.0976 316.2112a176.4352 176.4352 0 0 0-81.92-101.6832v35.9424z" fill="#FFFFFF" p-id="2799"></path><path d="M634.88 367.616a175.9232 175.9232 0 0 0-7.68-51.2l-81.92-65.7408V215.04c-3.584-2.048-7.2704-3.9936-10.9568-5.7344v40.1408L377.856 376.6272a55.7056 55.7056 0 0 0-20.48 43.1104v92.16A176.0256 176.0256 0 0 0 634.88 367.616z m-94.6176 11.8784a51.2 51.2 0 1 1-51.2 51.2 51.2 51.2 0 0 1 50.9952-51.2z" fill="#1082FF" p-id="2800"></path><path d="M634.88 367.616a175.9232 175.9232 0 0 0-7.68-51.2l-81.92-65.7408V215.04c-3.584-2.048-7.2704-3.9936-10.9568-5.7344v40.1408L377.856 376.6272a55.7056 55.7056 0 0 0-20.48 43.1104v92.16A176.0256 176.0256 0 0 0 634.88 367.616z m-94.6176 11.8784a51.2 51.2 0 1 1-51.2 51.2 51.2 51.2 0 0 1 50.9952-51.2z" fill="#459CFC" p-id="2801"></path></svg>